<?xml version="1.0" encoding="UTF-8" standalone="no"?>
<svg
   version="1.0"
   width="96.000000pt"
   height="96.000000pt"
   viewBox="0 0 96.000000 96.000000"
   preserveAspectRatio="xMidYMid meet"
   id="svg3"
   sodipodi:docname="help.svg"
   inkscape:version="1.3.2 (091e20e, 2023-11-25, custom)"
   xmlns:inkscape="http://www.inkscape.org/namespaces/inkscape"
   xmlns:sodipodi="http://sodipodi.sourceforge.net/DTD/sodipodi-0.dtd"
   xmlns="http://www.w3.org/2000/svg"
   xmlns:svg="http://www.w3.org/2000/svg">
  <defs
     id="defs3" />
  <sodipodi:namedview
     id="namedview3"
     pagecolor="#ffffff"
     bordercolor="#000000"
     borderopacity="0.25"
     inkscape:showpageshadow="2"
     inkscape:pageopacity="0.0"
     inkscape:pagecheckerboard="0"
     inkscape:deskcolor="#d1d1d1"
     inkscape:document-units="pt"
     inkscape:zoom="6.2109375"
     inkscape:cx="63.919497"
     inkscape:cy="64"
     inkscape:window-width="1920"
     inkscape:window-height="991"
     inkscape:window-x="-9"
     inkscape:window-y="-9"
     inkscape:window-maximized="1"
     inkscape:current-layer="svg3" />
  <g
     transform="translate(0.000000,96.000000) scale(0.100000,-0.100000)"
     fill="#000000"
     stroke="none"
     id="g3"
     style="fill:#dddddf;fill-opacity:1">
    <path
       d="M386 870 c-63 -16 -153 -70 -197 -117 -22 -24 -55 -74 -72 -111 -29 -61 -32 -76 -32 -163 0 -90 2 -99 37 -171 45 -91 103 -147 196 -191 61 -29 76 -32 162 -32 86 0 101 3 162 32 93 44 151 100 196 191 35 72 37 81 37 172 0 91 -2 100 -37 172 -68 136 -188 217 -336 224 -42 2 -94 -1 -116 -6z m235 -82 c69 -32 135 -98 168 -168 37 -79 37 -201 0 -280 -33 -70 -99 -136 -169 -169 -79 -37 -201 -37 -280 0 -70 33 -136 99 -169 169 -37 79 -37 201 0 280 28 59 94 132 143 157 96 50 213 54 307 11z"
       id="path1"
       style="fill:#dddddf;fill-opacity:1" />
    <path
       d="M435 691 c-41 -18 -68 -59 -69 -103 -1 -39 1 -43 24 -43 20 0 25 6 31 35 12 58 61 78 99 40 33 -33 25 -67 -26 -122 -37 -40 -45 -54 -42 -81 2 -26 7 -32 27 -32 18 0 26 7 32 27 4 15 23 42 42 62 58 58 62 139 8 190 -31 30 -91 42 -126 27z"
       id="path2"
       style="fill:#dddddf;fill-opacity:1" />
    <path
       d="M450 305 c-15 -18 -10 -45 13 -59 34 -22 73 27 47 59 -16 19 -44 19 -60 0z"
       id="path3"
       style="fill:#dddddf;fill-opacity:1" />
  </g>
</svg>
