<?xml version="1.0" encoding="utf-8"?>
<svg width="20px" height="20px" viewBox="0 0 20 20" version="1.1" xmlns:xlink="http://www.w3.org/1999/xlink" xmlns="http://www.w3.org/2000/svg">
  <defs>
    <path d="M-839 -177L-839 -177L-839 -157L-859 -157L-859 -177L-839 -177Z" id="path_1" />
    <clipPath id="clip_1">
      <use xlink:href="#path_1" clip-rule="evenodd" fill-rule="evenodd" />
    </clipPath>
  </defs>
  <g id="weui--max-window-filled">
    <path d="M-839 -177L-839 -177L-839 -157L-859 -157L-859 -177L-839 -177Z" id="weui--max-window-filled" fill="none" stroke="none" />
    <path d="M17.5 12.5L17.5 16.6667C17.5 17.1269 17.1269 17.5 16.6667 17.5L12.5 17.5L12.5 15.8333L15.8333 15.8333L15.8333 12.5L17.5 12.5ZM7.5 2.5L7.5 4.16667L4.16667 4.16667L4.16667 7.5L2.5 7.5L2.5 3.33333C2.5 2.8731 2.8731 2.5 3.33333 2.5L7.5 2.5ZM14.6533 4.16667L12.5 4.16667L12.5 2.5L16.6667 2.5C17.1269 2.5 17.5 2.8731 17.5 3.33333L17.5 7.5L15.8333 7.5L15.8333 5.345L12.195 8.98167L11.0167 7.80333L14.6533 4.16667ZM5.34667 15.8317L7.5 15.8317L7.5 17.4983L3.33333 17.4983C2.8731 17.4983 2.5 17.1252 2.5 16.665L2.5 12.4983L4.16667 12.4983L4.16667 14.6542L7.805 11.0167L8.98333 12.195L5.34667 15.8317Z" id="Shape" fill="#FFFFFF" fill-rule="evenodd" stroke="none" clip-path="url(#clip_1)" />
  </g>
</svg>