<?xml version="1.0" encoding="UTF-8" standalone="no"?>
<svg
   version="1.0"
   width="96.000000pt"
   height="96.000000pt"
   viewBox="0 0 96.000000 96.000000"
   preserveAspectRatio="xMidYMid meet"
   id="svg4"
   sodipodi:docname="wifi.svg"
   inkscape:version="1.3.2 (091e20e, 2023-11-25, custom)"
   xmlns:inkscape="http://www.inkscape.org/namespaces/inkscape"
   xmlns:sodipodi="http://sodipodi.sourceforge.net/DTD/sodipodi-0.dtd"
   xmlns="http://www.w3.org/2000/svg"
   xmlns:svg="http://www.w3.org/2000/svg">
  <defs
     id="defs4" />
  <sodipodi:namedview
     id="namedview4"
     pagecolor="#ffffff"
     bordercolor="#000000"
     borderopacity="0.25"
     inkscape:showpageshadow="2"
     inkscape:pageopacity="0.0"
     inkscape:pagecheckerboard="0"
     inkscape:deskcolor="#d1d1d1"
     inkscape:document-units="pt"
     inkscape:zoom="6.2109375"
     inkscape:cx="63.919497"
     inkscape:cy="64"
     inkscape:window-width="1920"
     inkscape:window-height="991"
     inkscape:window-x="-9"
     inkscape:window-y="-9"
     inkscape:window-maximized="1"
     inkscape:current-layer="svg4" />
  <g
     transform="translate(0.000000,96.000000) scale(0.100000,-0.100000)"
     fill="#000000"
     stroke="none"
     id="g4"
     style="fill:#dddddd;fill-opacity:1">
    <path
       d="M345 825 c-87 -19 -165 -51 -231 -94 -75 -48 -89 -64 -71 -80 11 -9 23 -4 53 20 57 45 173 98 256 115 86 19 223 13 308 -12 62 -18 170 -74 214 -110 23 -20 31 -22 43 -12 13 11 10 17 -23 46 -127 110 -370 167 -549 127z"
       id="path1"
       style="fill:#dddddd;fill-opacity:1" />
    <path
       d="M382 629 c-91 -18 -226 -96 -215 -125 7 -20 15 -18 72 20 76 51 142 71 241 71 99 0 165 -20 241 -71 57 -38 64 -40 73 -19 11 30 -124 106 -224 125 -61 12 -127 11 -188 -1z"
       id="path2"
       style="fill:#dddddd;fill-opacity:1" />
    <path
       d="M399 427 c-46 -17 -109 -56 -109 -67 0 -22 26 -20 73 6 74 41 160 41 235 0 42 -23 55 -27 65 -17 9 10 8 16 -8 27 -73 56 -185 78 -256 51z"
       id="path3"
       style="fill:#dddddd;fill-opacity:1" />
    <path
       d="M440 200 c-11 -11 -20 -29 -20 -40 0 -26 34 -60 60 -60 26 0 60 34 60 60 0 11 -9 29 -20 40 -11 11 -29 20 -40 20 -11 0 -29 -9 -40 -20z"
       id="path4"
       style="fill:#dddddd;fill-opacity:1" />
  </g>
</svg>
