<?xml version="1.0" encoding="utf-8"?>
<svg width="32px" height="32px" viewBox="0 0 32 32" version="1.1" xmlns:xlink="http://www.w3.org/1999/xlink" xmlns="http://www.w3.org/2000/svg">
  <defs>
    <path d="M-136 -162L-136 -162L-136 -130L-168 -130L-168 -162L-136 -162Z" id="path_1" />
    <path d="M32 0L32 0L32 32L0 32L0 0L32 0L32 0Z" id="path_2" />
    <clipPath id="clip_1">
      <use xlink:href="#path_1" clip-rule="evenodd" fill-rule="evenodd" />
    </clipPath>
    <clipPath id="clip_2">
      <use xlink:href="#path_2" clip-rule="evenodd" fill-rule="evenodd" />
    </clipPath>
  </defs>
  <g id="DarkMode">
    <path d="M-136 -162L-136 -162L-136 -130L-168 -130L-168 -162L-136 -162Z" id="DarkMode" fill="none" stroke="none" />
    <g id="Group" transform="translate(-346 -143)" clip-path="url(#clip_1)">
      <g id="Group" transform="translate(346 143)">
        <path d="M32 0L32 0L32 32L0 32L0 0L32 0L32 0Z" id="Path" fill="none" fill-rule="evenodd" stroke="none" />
        <g clip-path="url(#clip_2)">
          <path d="M29.4425 18.7763C28.6349 21.4125 27.0165 23.7268 24.8175 25.39C20.8796 28.3538 15.6044 28.8358 11.1946 26.6349C6.7848 24.434 3.99881 19.9286 4 15C3.9914 12.1796 4.90828 9.43425 6.60999 7.18502C8.27317 4.98601 10.5875 3.36758 13.2237 2.56002C13.5778 2.451 13.9632 2.54666 14.2251 2.80864C14.4871 3.07061 14.5828 3.45595 14.4737 3.81002C13.2992 7.69513 14.3574 11.9114 17.2274 14.7813C20.0974 17.6513 24.3136 18.7095 28.1987 17.535C28.5528 17.426 28.9381 17.5217 29.2001 17.7836C29.4621 18.0456 29.5577 18.4309 29.4487 18.785L29.4425 18.7763L29.4425 18.7763Z" id="Path" fill="#FFFFFF" fill-rule="evenodd" stroke="none" />
        </g>
      </g>
    </g>
  </g>
</svg>