<?xml version="1.0" encoding="utf-8"?>
<svg width="30px" height="30px" viewBox="0 0 30 30" version="1.1" xmlns:xlink="http://www.w3.org/1999/xlink" xmlns="http://www.w3.org/2000/svg">
  <defs>
    <path d="M-290 -172L-290 -172L-290 -142L-320 -142L-320 -172L-290 -172Z" id="path_1" />
    <clipPath id="clip_1">
      <use xlink:href="#path_1" clip-rule="evenodd" fill-rule="evenodd" />
    </clipPath>
  </defs>
  <g id="Help">
    <path d="M-290 -172L-290 -172L-290 -142L-320 -142L-320 -172L-290 -172Z" id="Help" fill="none" stroke="none" />
    <path d="M15 2.5C8.1 2.5 2.5 8.1 2.5 15C2.5 21.9 8.1 27.5 15 27.5C21.9 27.5 27.5 21.9 27.5 15C27.5 8.1 21.9 2.5 15 2.5M16.25 23.75L13.75 23.75L13.75 21.25L16.25 21.25L16.25 23.75ZM18.8375 14.0625L17.7125 15.2125C16.8125 16.125 16.25 16.875 16.25 18.75L13.75 18.75L13.75 18.125C13.75 16.75 14.3125 15.5 15.2125 14.5875L16.7625 13.0125C17.225 12.5625 17.5 11.9375 17.5 11.25C17.5 9.875 16.375 8.75 15 8.75C13.625 8.75 12.5 9.875 12.5 11.25L10 11.25C10 8.4875 12.2375 6.25 15 6.25C17.7625 6.25 20 8.4875 20 11.25C20 12.35 19.55 13.35 18.8375 14.0625" id="Shape" fill="#ECECEC" fill-rule="evenodd" stroke="none" clip-path="url(#clip_1)" />
  </g>
</svg>