<?xml version="1.0" encoding="utf-8"?>
<svg width="75px" height="75px" viewBox="0 0 75 75" version="1.1" xmlns:xlink="http://www.w3.org/1999/xlink" xmlns="http://www.w3.org/2000/svg">
  <defs>
    <path d="M-93 -162L-93 -162L-93 -87L-168 -87L-168 -162L-93 -162Z" id="path_1" />
    <clipPath id="clip_1">
      <use xlink:href="#path_1" clip-rule="evenodd" fill-rule="evenodd" />
    </clipPath>
  </defs>
  <g id="Profile">
    <path d="M-93 -162L-93 -162L-93 -87L-168 -87L-168 -162L-93 -162Z" id="Profile" fill="none" stroke="none" />
    <path d="M37.9807 6.25C20.4558 6.25 6.25 20.4559 6.25 37.9808C6.25 55.5057 20.4558 69.7115 37.9807 69.7115C55.5056 69.7115 69.7115 55.5057 69.7115 37.9808C69.7115 20.4559 55.5056 6.25 37.9807 6.25M26.875 30.0481C26.875 23.9145 31.8472 18.9423 37.9807 18.9423C44.1143 18.9423 49.0865 23.9145 49.0865 30.0481C49.0865 36.1816 44.1143 41.1539 37.9807 41.1539C31.8472 41.1539 26.875 36.1816 26.875 30.0481M57.8379 53.7954C53.0244 59.8465 45.7128 63.3703 37.9807 63.3654C30.2487 63.3703 22.937 59.8465 18.1236 53.7954C23.2672 50.1051 30.286 47.5 37.9807 47.5C45.6754 47.5 52.6943 50.1051 57.8379 53.7954" id="path_2" fill="#DDDDDD" fill-rule="evenodd" stroke="none" clip-path="url(#clip_1)" />
  </g>
</svg>