<?xml version="1.0" encoding="utf-8"?>
<svg width="75px" height="75px" viewBox="0 0 75 75" version="1.1" xmlns:xlink="http://www.w3.org/1999/xlink" xmlns="http://www.w3.org/2000/svg">
  <defs>
    <path d="M-245 -175L-245 -175L-245 -100L-320 -100L-320 -175L-245 -175Z" id="path_1" />
    <clipPath id="clip_1">
      <use xlink:href="#path_1" clip-rule="evenodd" fill-rule="evenodd" />
    </clipPath>
  </defs>
  <g id="Profile">
    <path d="M-245 -175L-245 -175L-245 -100L-320 -100L-320 -175L-245 -175Z" id="Profile" fill="none" stroke="none" />
    <g id="Group" transform="translate(6.2499847 6.25)" clip-path="url(#clip_1)">
      <path d="M31.7307 0C14.2058 0 0 14.2059 0 31.7308C0 49.2557 14.2058 63.4615 31.7307 63.4615C49.2556 63.4615 63.4615 49.2557 63.4615 31.7308C63.4615 14.2059 49.2556 0 31.7307 0M20.625 23.7981C20.625 17.6645 25.5972 12.6923 31.7307 12.6923C37.8643 12.6923 42.8365 17.6645 42.8365 23.7981C42.8365 29.9316 37.8643 34.9039 31.7307 34.9039C25.5972 34.9039 20.625 29.9316 20.625 23.7981M51.5879 47.5454C46.7744 53.5965 39.4628 57.1203 31.7307 57.1154C23.9987 57.1203 16.687 53.5965 11.8736 47.5454C17.0172 43.8551 24.036 41.25 31.7307 41.25C39.4254 41.25 46.4443 43.8551 51.5879 47.5454" id="path_2" fill="#DDDDDD" fill-rule="evenodd" stroke="none" />
    </g>
  </g>
</svg>