<?xml version="1.0" encoding="utf-8"?>
<svg width="77px" height="77px" viewBox="0 0 77 77" version="1.1" xmlns:xlink="http://www.w3.org/1999/xlink" xmlns="http://www.w3.org/2000/svg">
  <defs>
    <path d="M-243 -172L-243 -172L-243 -95L-320 -95L-320 -172L-243 -172Z" id="path_1" />
    <clipPath id="clip_1">
      <use xlink:href="#path_1" clip-rule="evenodd" fill-rule="evenodd" />
    </clipPath>
  </defs>
  <g id="Profile">
    <path d="M-243 -172L-243 -172L-243 -95L-320 -95L-320 -172L-243 -172Z" id="Profile" fill="none" stroke="none" />
    <path d="M38.9935 6.41667C21.0013 6.41667 6.41667 21.0014 6.41667 38.9936C6.41667 56.9858 21.0013 71.5704 38.9935 71.5704C56.9858 71.5704 71.5705 56.9858 71.5705 38.9936C71.5705 21.0014 56.9858 6.41667 38.9935 6.41667M27.5917 30.8494C27.5917 24.5522 32.6965 19.4474 38.9935 19.4474C45.2907 19.4474 50.3955 24.5522 50.3955 30.8494C50.3955 37.1464 45.2907 42.2513 38.9935 42.2513C32.6965 42.2513 27.5917 37.1464 27.5917 30.8494M59.3803 55.2299C54.4384 61.4424 46.9318 65.0602 38.9935 65.0551C31.0554 65.0602 23.5487 61.4424 18.6069 55.2299C23.8877 51.4412 31.0937 48.7667 38.9935 48.7667C46.8934 48.7667 54.0995 51.4412 59.3803 55.2299" id="path_2" fill="#FFFFFF" fill-rule="evenodd" stroke="none" clip-path="url(#clip_1)" />
  </g>
</svg>