<?xml version="1.0" encoding="utf-8"?>
<svg width="77px" height="77px" viewBox="0 0 77 77" version="1.1" xmlns:xlink="http://www.w3.org/1999/xlink" xmlns="http://www.w3.org/2000/svg">
  <defs>
    <path d="M-243 -175L-243 -175L-243 -98L-320 -98L-320 -175L-243 -175Z" id="path_1" />
    <clipPath id="clip_1">
      <use xlink:href="#path_1" clip-rule="evenodd" fill-rule="evenodd" />
    </clipPath>
  </defs>
  <g id="Profile">
    <path d="M-243 -175L-243 -175L-243 -98L-320 -98L-320 -175L-243 -175Z" id="Profile" fill="none" stroke="none" />
    <g id="Group" transform="translate(6.416651 6.4166665)" clip-path="url(#clip_1)">
      <path d="M32.5779 0C14.5851 0 0 14.5852 0 32.578C0 50.5708 14.5851 65.1559 32.5779 65.1559C50.5707 65.1559 65.1559 50.5708 65.1559 32.578C65.1559 14.5852 50.5707 0 32.5779 0M21.1757 24.4335C21.1757 18.1361 26.2807 13.0312 32.5779 13.0312C38.8753 13.0312 43.9802 18.1361 43.9802 24.4335C43.9802 30.7308 38.8753 35.8358 32.5779 35.8358C26.2807 35.8358 21.1757 30.7308 21.1757 24.4335M52.9653 48.8149C48.0233 55.0275 40.5165 58.6454 32.5779 58.6404C24.6395 58.6454 17.1326 55.0275 12.1907 48.8149C17.4716 45.026 24.6778 42.3514 32.5779 42.3514C40.4781 42.3514 47.6844 45.026 52.9653 48.8149" id="path_2" fill="#FFFFFF" fill-rule="evenodd" stroke="none" />
    </g>
  </g>
</svg>