<?xml version="1.0" encoding="utf-8"?>
<svg width="20px" height="20px" viewBox="0 0 20 20" version="1.1" xmlns:xlink="http://www.w3.org/1999/xlink" xmlns="http://www.w3.org/2000/svg">
  <defs>
    <path d="M-876 -165L-876 -165L-876 -145L-896 -145L-896 -165L-876 -165Z" id="path_1" />
    <clipPath id="clip_1">
      <use xlink:href="#path_1" clip-rule="evenodd" fill-rule="evenodd" />
    </clipPath>
  </defs>
  <g id="icon-park-outline--reduce">
    <path d="M-876 -165L-876 -165L-876 -145L-896 -145L-896 -165L-876 -165Z" id="icon-park-outline--reduce" fill="none" stroke="none" />
    <g id="Group" transform="translate(2.5 2.5)" clip-path="url(#clip_1)">
      <path d="M0 2.5L0 1.25C0 0.904822 0.122039 0.610194 0.366117 0.366117C0.610194 0.122039 0.904822 0 1.25 0L13.75 0C14.0952 0 14.3898 0.122039 14.6339 0.366117C14.878 0.610194 15 0.904822 15 1.25L15 13.75C15 14.0952 14.878 14.3898 14.6339 14.6339C14.3898 14.878 14.0952 15 13.75 15L1.25 15C0.904822 15 0.610194 14.878 0.366117 14.6339C0.122039 14.3898 0 14.0952 0 13.75L0 2.5Z" id="Path" fill="none" fill-rule="evenodd" stroke="#FFFFFF" stroke-width="1" stroke-linejoin="round" />
      <g id="Group" transform="translate(4.166687 7.486252)">
        <path d="M0 0L6.66667 0" id="Path" fill="none" fill-rule="evenodd" stroke="#FFFFFF" stroke-width="1" stroke-linecap="round" stroke-linejoin="round" />
      </g>
    </g>
  </g>
</svg>