<?xml version="1.0" encoding="utf-8"?>
<svg width="30px" height="30px" viewBox="0 0 30 30" version="1.1" xmlns:xlink="http://www.w3.org/1999/xlink" xmlns="http://www.w3.org/2000/svg">
  <defs>
    <path d="M-290 -172L-290 -172L-290 -142L-320 -142L-320 -172L-290 -172Z" id="path_1" />
    <path d="M30 0L30 0L30 30L0 30L0 0L30 0L30 0Z" id="path_2" />
    <clipPath id="clip_1">
      <use xlink:href="#path_1" clip-rule="evenodd" fill-rule="evenodd" />
    </clipPath>
    <clipPath id="clip_2">
      <use xlink:href="#path_2" clip-rule="evenodd" fill-rule="evenodd" />
    </clipPath>
  </defs>
  <g id="wifi">
    <path d="M-290 -172L-290 -172L-290 -142L-320 -142L-320 -172L-290 -172Z" id="wifi" fill="none" stroke="none" />
    <g id="Group" transform="translate(-349 -147)" clip-path="url(#clip_1)">
      <g id="Group" transform="translate(349 147)">
        <path d="M30 0L30 0L30 30L0 30L0 0L30 0L30 0Z" id="Path" fill="none" fill-rule="evenodd" stroke="none" />
        <g clip-path="url(#clip_2)">
          <g id="Group">
            <path d="M30 0L30 30L0 30L0 0L30 0L30 0ZM15.7412 29.0725L15.7275 29.075L15.6387 29.1188L15.6137 29.1238L15.5962 29.1188L15.5075 29.075C15.4941 29.0708 15.4841 29.0729 15.4775 29.0813L15.4725 29.0938L15.4512 29.6288L15.4575 29.6538L15.47 29.67L15.6 29.7625L15.6187 29.7675L15.6337 29.7625L15.7637 29.67L15.7787 29.65L15.7837 29.6288L15.7625 29.095C15.7592 29.0817 15.7521 29.0742 15.7412 29.0725M16.0725 28.9312L16.0562 28.9337L15.825 29.05L15.8125 29.0625L15.8087 29.0762L15.8312 29.6137L15.8375 29.6287L15.8475 29.6375L16.0987 29.7537C16.1146 29.7579 16.1267 29.7546 16.135 29.7437L16.14 29.7262L16.0975 28.9587C16.0933 28.9429 16.085 28.9337 16.0725 28.9312M15.1788 28.9337C15.1673 28.9268 15.1524 28.9301 15.145 28.9412L15.1375 28.9587L15.095 29.7262C15.0958 29.7412 15.1029 29.7512 15.1163 29.7562L15.135 29.7537L15.3863 29.6375L15.3988 29.6275L15.4038 29.6137L15.425 29.0762L15.4213 29.0612L15.4088 29.0487L15.1788 28.9337L15.1788 28.9337Z" id="Shape" fill="none" fill-rule="evenodd" stroke="none" />
            <path d="M15 20.625C16.0355 20.625 16.875 21.4645 16.875 22.5C16.875 23.5355 16.0355 24.375 15 24.375C13.9645 24.375 13.125 23.5355 13.125 22.5C13.125 21.4645 13.9645 20.625 15 20.625M15 15.625C16.8232 15.6247 18.5718 16.3486 19.8613 17.6375C20.5704 18.3427 20.6012 19.4803 19.9314 20.2229C19.2616 20.9654 18.1268 21.0516 17.3525 20.4187L17.21 20.29C16.6239 19.704 15.8289 19.3748 15 19.375C14.2225 19.375 13.5138 19.6563 12.9663 20.1262L12.7913 20.29C12.0592 21.0225 10.8719 21.0227 10.1394 20.2906C9.40694 19.5585 9.40666 18.3712 10.1388 17.6388C11.4281 16.3494 13.1767 15.6251 15 15.625M15 10.625C18.2788 10.625 21.25 11.9563 23.3963 14.1038C23.8979 14.5712 24.1044 15.2752 23.9347 15.9395C23.7651 16.6039 23.2463 17.1226 22.582 17.2923C21.9177 17.4619 21.2137 17.2554 20.7463 16.7538C19.2237 15.2278 17.1557 14.3717 15 14.375C12.8446 14.3724 10.7771 15.2289 9.25502 16.755C8.78145 17.229 8.09094 17.4143 7.44368 17.2411C6.79643 17.0679 6.29078 16.5624 6.11728 15.9153C5.94378 15.2681 6.12879 14.5775 6.6026 14.1037C8.82807 11.874 11.8498 10.6223 15 10.625M15 5.62501C19.6588 5.62501 23.8813 7.51626 26.9325 10.5675C27.6646 11.3 27.6644 12.4873 26.9319 13.2194C26.1994 13.9515 25.0121 13.9512 24.28 13.2188C21.8218 10.753 18.4817 9.36958 15 9.37501C11.375 9.37501 8.09627 10.8425 5.71876 13.2188C5.25002 13.7146 4.54894 13.9166 3.88823 13.7463C3.22752 13.576 2.71149 13.0602 2.54086 12.3995C2.37023 11.7389 2.57193 11.0377 3.06751 10.5688C6.22889 7.39896 10.5232 5.61979 15 5.62501" id="Shape#1" fill="#BBBBBB" fill-rule="evenodd" stroke="none" />
          </g>
        </g>
      </g>
    </g>
  </g>
</svg>